<svg xmlns:xlink="http://www.w3.org/1999/xlink" xmlns="http://www.w3.org/2000/svg" viewBox="0 0 270 263.2590560045322" preserveAspectRatio="xMidYMid meet" class="css-ata32y" id="ecdgegge" width="270"  height="263.2590560045322" ><defs id="SvgjsDefs1579"></defs><g id="SvgjsG1580" featurekey="rootContainer" transform="matrix(2.5809711372993354,0,0,2.5809711372993354,0.030434266996216174,0)" fill="#905FF4"><path xmlns="http://www.w3.org/2000/svg" d="M50.8 102h5.8l1.8-.2 1.7-.3h1.7l1.9-.3 1.8-.4.9-.2.9-.3 1.7-.6 2-.8a54 54 0 0 0 15.3-9.4l1.4-1.2.7-.5.6-.4 1-.5.8-.5 1.5-1.2 1.5-1.5.8-1 .9-1.1a50.9 50.9 0 0 0 3.9-5.8 34.8 34.8 0 0 0 1.6-3.1l.2-.4.2-.4.3-.8.3-.9.2-.4v-.4l.4-1.2.2-.6v-.3h.1v-.2l.7-2.5c.2-.9.4-1.7.5-2.6a25.4 25.4 0 0 0 .2-2.6v-3.1c0-.3 0-1 .1-1.5v-2.1a21.3 21.3 0 0 0 .2-2.6v-2.6c0-.9-.1-1.1-.1-1.6l-.2-1.5c-.1-1-.4-2-.5-3s-.2-1-.3-1.4l-.3-1.4-.3-1.4v-1.7l-.4-1.4-.2-.7-.2-.7-.4-1.4-.5-1.4-.4-1-.5-1-1-2.1a40.7 40.7 0 0 1-1.8-4.1 3.6 3.6 0 0 0-.8-1.2l-.7-.6-.2-.3-.3-.5a25.7 25.7 0 0 0-1.6-2.3l-.8-1.1-.9-1.1-.4-.5-.2-.3-.2-.2h-.1l-.9-1-.5-.5-.5-.5-.9-1.1-1.1-1a47.9 47.9 0 0 0-3.8-3l-.1-.5-1.3-.9A29 29 0 0 0 72 .4h-3.1a.8.8 0 0 0-.6 1.2A3.9 3.9 0 0 0 69.9 3l-.6.3-.4-.2a.9.9 0 0 0 0-.3c-.1-.5-.2-.9-1.3-1.3L65.3.7l-.6-.2h-.6L62.8 0l-1.3 1.2A48.5 48.5 0 0 0 39 2.4 31.1 31.1 0 0 0 31.4 4h-.5l-.5.2-1 .4-1 .5-.9.6-1.8 1.5-.8.6-.7.7c-1 .9-1.9 1.9-2.8 2.8L20 12.8l-1.4 1.5-.5.5-.5.5-1.1 1a55.1 55.1 0 0 0-7 7l.2-.5.6-1.1.6-1.1.6-1.1.6-1.2.6-1.2 1.2-2.4.4-.8.3-.6a1 1 0 0 0 0-.8 3.7 3.7 0 0 1-.2-1.2 17.1 17.1 0 0 0-2.1 1.1l-1.5 1.1-.8.6-.7.7-.8 1-.5 1-.5 1-.2.5-.3.5-.3.6-.4.8-.4.8-.7 1.7-.5 1.3-.5 1.3v.7l-.2.6-.3 1.3v.2h-.4v.3l-.2.7-.3 1.4-.2.7-.2.7-.4 1.7-.4 1.9-.2.9v2.8l-.6 1.9a38.3 38.3 0 0 0-.1 4.1 52.7 52.7 0 0 0-.7 8.7 5.2 5.2 0 0 0 0 .7c.5 3 .8 6 1.5 9l.4 1.8.5 1.8a18.3 18.3 0 0 0 .6 1.7l.4.8.4.8.9 1.7.5.8.5.8.5.8.5.8L7.8 77c1.4 2 2.9 4 4.5 5.9a35.6 35.6 0 0 0 2.6 2.7l.7.6.3.3.4.3 1.5 1.1 1 1a34 34 0 0 0 8.2 6.2l1.4.7 1.5.7.7.3.8.3 1.5.6.9.4.8.4.8.4 1 .4 1.9.7 1.9.6 1.6.4 1.6.4 1.6.3h5.7z" fill="#905FF4"></path></g><g id="SvgjsG1581" featurekey="symbolFeature-0" transform="matrix(0.9420380866648159,0,0,0.9420380866648159,87.0505384545586,54.493026189186345)" fill="#FFFFFF"><g xmlns="http://www.w3.org/2000/svg" fill="#FFFFFF"><path d="M50.125,11.016c0.136,0.057,0.275,0.082,0.413,0.082c0.42,0,0.819-0.247,0.991-0.659l1.566-3.757   c0.229-0.547-0.029-1.176-0.576-1.403s-1.176,0.03-1.402,0.577l-1.568,3.758C49.32,10.16,49.579,10.787,50.125,11.016z" fill="#FFFFFF"></path><path d="M43.995,9.47c0.166,0.423,0.569,0.681,0.998,0.681c0.13,0,0.263-0.023,0.392-0.075c0.553-0.217,0.822-0.839,0.605-1.39   l-1.684-4.283c-0.218-0.551-0.84-0.823-1.391-0.605c-0.552,0.217-0.822,0.84-0.605,1.391L43.995,9.47z" fill="#FFFFFF"></path><path d="M78.991,73.727l-4.813-15.75c0.477-2.957,3.496-21.385-4.604-47.883c-0.128-0.417-0.423-0.773-0.808-0.979   c-0.388-0.205-0.848-0.25-1.266-0.123L48.339,14.85c-0.418,0.129-0.773,0.424-0.979,0.81c-0.204,0.386-0.249,0.846-0.122,1.263   c0.396,1.292,0.802,2.552,1.217,3.782L29.38,16.301c-0.427-0.099-0.883-0.021-1.254,0.211c-0.37,0.23-0.639,0.607-0.737,1.033   c-6.232,26.998-1.935,45.17-1.253,48.086l-3.703,16.047c-2.037,8.826-16.395,2.365-13.646,6.766l26.995,6.232   c4.399-2.748-11.337-3.236-9.298-12.062l3.705-16.048c1.854-2.276,13.254-16.198,19.575-42.166   c8.003,21.593,18.589,32.822,20.435,34.792l4.816,15.748C77.663,83.604,62,85.188,66.579,87.626l26.496-8.103   C95.512,74.943,81.639,82.389,78.991,73.727z M46.943,23.762c-5.59,24.212-14.979,38.5-17.302,41.453   c-0.338,0.43-0.499,0.615-0.501,0.617c-0.178,0.205-0.301,0.447-0.361,0.711l-3.639,15.76c-0.936,4.057,0.297,5.504,1.803,6.934   L24.8,88.742l-3.543-0.818l-2.14-0.496c1.979-0.623,3.722-1.383,4.658-5.439l3.638-15.758c0.062-0.266,0.058-0.539-0.012-0.801   c-0.002-0.002-0.065-0.238-0.18-0.772c-0.793-3.673-2.967-20.63,2.623-44.842l0.482-2.09l6.096,1.408l4.905,1.132l6.098,1.407   L46.943,23.762z M80.598,79.875l-3.477,1.062L75.02,81.58c1.401-1.531,2.531-3.061,1.314-7.043l-4.729-15.465   c-0.08-0.262-0.221-0.496-0.41-0.687c-0.004-0.002-0.178-0.176-0.545-0.581C68.129,55.021,57.766,41.424,50.5,17.66l-0.627-2.051   l5.984-1.829l4.813-1.472l5.983-1.83l0.627,2.051c7.266,23.764,6.279,40.833,5.744,44.551c-0.076,0.541-0.123,0.781-0.125,0.783   c-0.051,0.266-0.037,0.539,0.043,0.799l4.729,15.467c1.218,3.98,3.009,4.617,5.026,5.104L80.598,79.875z" fill="#FFFFFF"></path><path d="M41.042,14.354c0.197,0.156,0.434,0.233,0.668,0.233c0.314,0,0.627-0.139,0.84-0.405c0.369-0.463,0.291-1.139-0.172-1.507   l-3.574-2.844c-0.463-0.368-1.139-0.292-1.508,0.172c-0.367,0.464-0.291,1.138,0.172,1.507L41.042,14.354z" fill="#FFFFFF"></path><path d="M28.648,30.975c-2.097,13.467-2.396,28.154,0.943,28.925c4.088,0.943,12.361-19.222,15.851-34.104   c-2.709-3.442-3.16,2.109-7.384,2.404C34.317,28.463,29.253,26.209,28.648,30.975z M35.317,32.265   c0.064-0.282,0.345-0.457,0.628-0.392c0.281,0.064,0.458,0.345,0.393,0.627c-0.065,0.281-0.347,0.459-0.628,0.395   C35.425,32.828,35.251,32.547,35.317,32.265z M35.46,41.481c0.325,0.076,0.529,0.4,0.453,0.728c-0.074,0.325-0.4,0.529-0.726,0.454   c-0.328-0.075-0.53-0.401-0.455-0.728C34.807,41.608,35.131,41.406,35.46,41.481z M33.562,37.289c0.076-0.328,0.4-0.53,0.729-0.455   c0.324,0.076,0.529,0.4,0.453,0.728c-0.076,0.325-0.401,0.53-0.727,0.454C33.689,37.941,33.488,37.615,33.562,37.289z    M31.981,28.612c0.331,0.062,0.546,0.378,0.485,0.709c-0.062,0.328-0.379,0.545-0.709,0.482c-0.328-0.061-0.546-0.378-0.484-0.707   C31.335,28.767,31.654,28.549,31.981,28.612z M29.427,32.5c0.074-0.326,0.399-0.53,0.728-0.455c0.324,0.076,0.528,0.4,0.454,0.729   c-0.076,0.324-0.402,0.529-0.728,0.454C29.554,33.152,29.351,32.826,29.427,32.5z M29.034,43.481   c-0.326-0.077-0.529-0.403-0.453-0.729c0.075-0.326,0.399-0.529,0.727-0.453c0.324,0.074,0.53,0.4,0.455,0.727   C29.687,43.352,29.36,43.555,29.034,43.481z M30.662,57.252c-0.075,0.324-0.402,0.529-0.729,0.453   c-0.326-0.074-0.527-0.4-0.453-0.727c0.076-0.328,0.4-0.529,0.727-0.455C30.533,56.6,30.738,56.924,30.662,57.252z M30.765,47.561   c-0.074,0.325-0.401,0.529-0.727,0.453c-0.326-0.074-0.529-0.4-0.453-0.727c0.074-0.326,0.398-0.529,0.727-0.455   C30.636,46.908,30.841,47.232,30.765,47.561z M32.357,52.404c-0.076,0.326-0.402,0.529-0.729,0.455   c-0.327-0.075-0.528-0.401-0.453-0.729c0.074-0.324,0.4-0.525,0.727-0.451C32.227,51.755,32.431,52.08,32.357,52.404z    M32.576,39.699c-0.074,0.326-0.4,0.529-0.727,0.455c-0.327-0.076-0.529-0.402-0.455-0.729c0.076-0.326,0.4-0.529,0.729-0.453   C32.448,39.047,32.651,39.372,32.576,39.699z M43.462,30.786c-0.075,0.324-0.402,0.528-0.729,0.453   c-0.327-0.075-0.529-0.402-0.453-0.727c0.076-0.328,0.4-0.53,0.727-0.455C43.333,30.133,43.538,30.457,43.462,30.786z    M38.749,29.25c0.075-0.327,0.4-0.529,0.728-0.454c0.326,0.075,0.529,0.399,0.454,0.728c-0.075,0.324-0.401,0.529-0.727,0.454   C38.876,29.902,38.673,29.575,38.749,29.25z M38.425,34.291c0.076-0.326,0.4-0.53,0.727-0.455c0.236,0.054,0.404,0.241,0.453,0.462   c0.775-2.446,1.347-4.498,1.743-6.034c0.041-0.159,0.992-0.724,1.694-1.756c-0.772,3.36-3.332,13.263-9.102,25.648   c-0.124,0.268-0.417,0.404-0.695,0.339c-0.04-0.009-0.079-0.022-0.119-0.041c-0.31-0.144-0.444-0.504-0.3-0.812   c3.021-6.486,5.151-12.277,6.603-16.785c-0.143,0.136-0.342,0.208-0.549,0.161C38.552,34.943,38.35,34.616,38.425,34.291z" fill="#FFFFFF"></path><path d="M67.91,24.356c-1.41,0-2.916,0.983-5.354,0.983c-5.019,0.241-7.15-7.502-9.664-3.166   c4.805,14.213,13.651,31.492,17.434,30.328c3.098-0.951,2.053-14.092-0.658-26.749C69.498,25.025,69.008,24.356,67.91,24.356z    M65.744,30.304c0.32-0.099,0.658,0.079,0.759,0.4c0.099,0.319-0.08,0.659-0.401,0.759c-0.318,0.098-0.658-0.082-0.756-0.401   C65.245,30.74,65.425,30.402,65.744,30.304z M55.586,24.562c-0.32,0.098-0.661-0.082-0.759-0.401   c-0.101-0.32,0.082-0.66,0.401-0.758c0.319-0.1,0.658,0.08,0.758,0.4C56.084,24.123,55.906,24.463,55.586,24.562z M59.271,28.352   c-0.318,0.099-0.66-0.082-0.758-0.4c-0.1-0.32,0.082-0.66,0.4-0.758c0.32-0.1,0.659,0.08,0.757,0.4   C59.771,27.913,59.592,28.253,59.271,28.352z M60.784,31.948c-0.319,0.1-0.66-0.081-0.759-0.4c-0.099-0.321,0.082-0.659,0.4-0.758   c0.321-0.1,0.659,0.08,0.758,0.4C61.284,31.511,61.105,31.85,60.784,31.948z M62.396,26.756c-0.1-0.322,0.08-0.659,0.398-0.757   c0.322-0.101,0.66,0.079,0.76,0.399c0.098,0.32-0.08,0.66-0.4,0.758C62.834,27.256,62.493,27.076,62.396,26.756z M63.5,35.988   c-0.318,0.098-0.659-0.082-0.757-0.402c-0.099-0.32,0.08-0.659,0.399-0.758c0.32-0.099,0.659,0.08,0.758,0.4   C63.999,35.549,63.82,35.889,63.5,35.988z M65.8,44.28c-0.319,0.098-0.661-0.082-0.759-0.401c-0.1-0.319,0.083-0.66,0.402-0.758   c0.318-0.1,0.656,0.081,0.757,0.401C66.299,43.841,66.119,44.182,65.8,44.28z M66.882,39.898c-0.319,0.098-0.659-0.082-0.759-0.4   c-0.1-0.322,0.083-0.66,0.4-0.759c0.319-0.099,0.658,0.081,0.758,0.401C67.38,39.459,67.202,39.799,66.882,39.898z M69.826,50.344   c-0.319,0.098-0.66-0.082-0.758-0.401c-0.101-0.321,0.082-0.659,0.399-0.758c0.32-0.099,0.658,0.08,0.759,0.401   C70.324,49.904,70.146,50.244,69.826,50.344z M69.744,44.279c-0.038,0.014-0.08,0.021-0.124,0.024   c-0.339,0.032-0.638-0.214-0.666-0.554c-0.542-6.085-1.392-11.404-2.251-15.711l-0.291-1.499l1.168-0.34l0.312,1.524   c0.873,4.361,1.735,9.753,2.285,15.915C70.202,43.931,70.018,44.195,69.744,44.279z M69.271,27.576   c-0.317,0.098-0.658-0.082-0.756-0.402c-0.101-0.32,0.082-0.66,0.399-0.758c0.321-0.099,0.659,0.081,0.758,0.4   C69.773,27.136,69.593,27.476,69.271,27.576z" fill="#FFFFFF"></path><path d="M65.663,23.167c0.42-0.12,0.812-0.237,1.181-0.331c-0.892-3.492-2.01-7.114-2.025-7.16   c-0.112-0.318-0.459-0.486-0.781-0.373c-0.322,0.111-0.49,0.462-0.379,0.781C63.675,16.129,64.783,19.724,65.663,23.167z" fill="#FFFFFF"></path></g></g><g id="SvgjsG1582" featurekey="nameFeature-0" transform="matrix(1.3998173974772485,0,0,1.3998173974772485,32.55031955441481,149.329914315224)" fill="#FFFFFF"><path d="M1.76 25.08 l0 -11.2 c0 -0.36 -0.04 -0.72 0.04 -1.08 c0.04 -0.16 0 -0.32 0 -0.48 l0 -0.6 c0.04 -0.16 0.12 -0.24 0.28 -0.28 c0.08 -0.04 0.16 -0.04 0.24 -0.08 c0.12 0 0.24 -0.04 0.32 -0.12 c0.16 -0.08 0.32 -0.12 0.52 -0.16 l0.48 0 c0.28 0 0.6 0 0.92 -0.08 c0.28 -0.04 0.52 -0.04 0.8 0.04 c0.36 0.08 0.72 0.08 1.08 0 c0.24 -0.04 0.52 -0.08 0.76 0 c0.16 0.04 0.36 0 0.52 0 c0.32 -0.04 0.6 -0.08 0.88 0 c0.04 0.04 0.08 0.04 0.12 0 c0.48 -0.12 0.88 0.12 1.36 0.16 c0.24 0.04 0.52 0.12 0.72 0.32 c0.04 0.08 0.12 0.12 0.2 0.12 c0.16 0.04 0.28 0.12 0.36 0.2 c0.2 0.12 0.4 0.28 0.56 0.4 c0.12 0.12 0.24 0.28 0.4 0.36 c0.4 0.28 0.6 0.72 0.92 1.08 c0.2 0.2 0.36 0.4 0.36 0.72 c0 0.08 0.08 0.16 0.12 0.24 c0.04 0.04 0.08 0.12 0.08 0.16 c0.04 0.48 0.28 0.88 0.28 1.32 c0.04 0.56 0.24 1.12 0.44 1.64 c0.08 0.32 0.16 0.6 0.2 0.92 c0.08 0.4 0.12 0.8 0.2 1.2 c0.04 0.08 0.04 0.12 0.04 0.2 c-0.04 0.6 0.08 1.16 -0.12 1.76 c-0.08 0.28 -0.04 0.56 -0.04 0.88 c0 0.16 -0.04 0.32 -0.12 0.44 c-0.2 0.28 -0.28 0.64 -0.2 0.96 c0.04 0.32 0 0.6 -0.12 0.88 c-0.16 0.36 -0.2 0.72 -0.28 1.12 c-0.04 0.16 -0.08 0.32 -0.2 0.48 c-0.04 0.12 -0.08 0.2 -0.12 0.32 c-0.08 0.2 -0.2 0.36 -0.32 0.52 c-0.08 0.08 -0.16 0.2 -0.24 0.32 c-0.04 0.12 -0.08 0.24 0 0.32 c0.12 0.24 0.24 0.44 0.4 0.64 c0.32 0.52 0.68 1.08 1 1.6 c0.4 0.76 0.8 1.52 1.04 2.36 c0.16 0.4 0.28 0.76 0.52 1.08 c0.16 0.2 0.24 0.44 0.32 0.68 c0.2 0.44 0.36 0.88 0.64 1.28 c0.12 0.16 0.16 0.32 0.2 0.48 c0.08 0.28 0.16 0.48 0.36 0.64 c0.16 0.12 0.24 0.28 0.28 0.48 c0 0.16 0.08 0.36 0.16 0.52 s0.04 0.28 -0.08 0.4 c-0.12 0.16 -0.24 0.28 -0.4 0.36 c-0.4 0.28 -0.8 0.52 -1.2 0.76 c-0.2 0.12 -0.44 0.2 -0.64 0.24 c-0.12 0.08 -0.28 0.04 -0.36 -0.08 c-0.2 -0.16 -0.4 -0.36 -0.56 -0.6 c-0.4 -0.64 -0.8 -1.32 -1.04 -2.04 c-0.24 -0.68 -0.52 -1.28 -0.84 -1.92 c-0.2 -0.44 -0.4 -0.92 -0.56 -1.4 c-0.16 -0.44 -0.36 -0.92 -0.6 -1.36 l-1.2 -2.04 l-0.12 -0.24 c-0.12 -0.12 -0.2 -0.16 -0.36 -0.12 c-0.12 0.04 -0.24 0.08 -0.32 0.12 c-0.36 0.16 -0.76 0.24 -1.12 0.24 c-0.28 0 -0.56 -0.04 -0.8 0.08 l-0.36 0 c-0.24 0.04 -0.48 -0.16 -0.72 -0.08 s-0.44 0.04 -0.68 0 c-0.16 -0.04 -0.36 -0.04 -0.52 -0.08 c-0.56 0 -0.6 0.04 -0.6 0.56 l0 5.08 c0 0.72 -0.04 1.4 -0.16 2.12 c-0.04 0.36 -0.24 0.68 -0.36 1 c-0.04 0.08 -0.12 0.12 -0.2 0.16 c-0.16 0.04 -0.32 0.04 -0.44 0.16 c-0.04 0.04 -0.12 0.04 -0.2 0.04 l-0.88 0 s-0.48 -0.12 -0.56 -0.4 c-0.28 -0.52 -0.4 -1.12 -0.44 -1.68 c-0.04 -0.36 -0.04 -0.68 -0.04 -1.04 l0 -11 l0 0 z M5.04 20.56 l0 5.36 l0 0.6 c0 0.12 0.08 0.2 0.2 0.24 c0.28 0.04 0.56 0.08 0.88 0.04 c0.52 0.08 1.04 0.04 1.56 0.04 c0.28 0.04 0.52 0 0.8 -0.04 c0.64 -0.12 1.16 -0.4 1.64 -0.76 c0.24 -0.2 0.44 -0.4 0.56 -0.68 c0.16 -0.44 0.32 -0.84 0.4 -1.28 c0.04 -0.56 0.12 -1.08 0.24 -1.64 c0.04 -0.24 0.12 -0.48 0.16 -0.72 c0.08 -0.56 0.04 -1.12 0.04 -1.68 c0 -0.08 -0.04 -0.12 -0.04 -0.2 c-0.28 -1.04 -0.44 -2.12 -0.76 -3.16 c-0.32 -1.16 -0.16 -0.96 -1 -1.68 c-0.08 -0.08 -0.16 -0.12 -0.2 -0.2 c-0.24 -0.2 -0.48 -0.32 -0.8 -0.36 c-0.4 -0.08 -0.84 -0.08 -1.28 -0.12 c-0.56 0.08 -1.16 0 -1.76 0.04 l-0.32 0 c-0.24 0 -0.32 0.08 -0.32 0.36 l0 0.52 l0 5.32 z M32.406 11.920000000000002 c0 0.04 0.04 0.04 0.04 0.08 c0.16 0.68 0.2 1.4 0.2 2.16 l-0.04 0.04 c-0.12 0.64 -0.08 0.76 -0.8 0.8 c-0.24 0.04 -0.52 0.04 -0.8 0.04 l-6.28 0 c-0.24 0 -0.48 0 -0.72 0.04 c-0.2 0 -0.28 0.08 -0.28 0.24 l0 0.72 s0.04 0.48 0.04 0.72 l0 1.32 c0 0.56 0 1.08 0.08 1.64 l0 0.6 l0 5.12 c0 0.24 -0.04 0.48 0.04 0.76 c0.12 -0.04 0.2 0 0.28 -0.04 c0.92 -0.32 1.84 -0.48 2.76 -0.52 c0.64 -0.08 1.32 -0.12 1.96 -0.24 c0.32 -0.08 0.64 -0.12 1 -0.12 c0.36 -0.04 0.64 -0.08 0.96 -0.28 c0.08 -0.04 0.24 -0.04 0.32 0.08 c0.16 0.2 0.36 0.36 0.6 0.52 c0.36 0.24 0.56 0.88 0.28 1.44 c-0.32 0.6 -0.48 0.84 -1.32 1 c-0.28 0.04 -0.52 0.08 -0.8 0.12 c-0.84 0.12 -1.68 0.24 -2.52 0.32 c-0.12 0.04 -0.28 0.04 -0.4 0.04 c-1.04 0.08 -2 0.36 -2.92 0.8 c-0.16 0.08 -0.24 0.2 -0.24 0.4 l0 1.08 l0 4 c0 0.2 0 0.4 0.04 0.64 c0 0.08 0.04 0.12 0.12 0.16 l0.64 0 l6.32 0 l0.48 0 c0.72 0.04 0.64 -0.04 0.76 0.64 c0.08 0.56 0.08 1.08 0.08 1.6 l0 0.16 c-0.2 0.6 -0.12 0.72 -0.84 0.72 c-1.08 0.04 -2.16 0.04 -3.28 0 l-2.32 0 c-0.96 0 -1.96 0 -2.96 -0.04 c-0.56 -0.04 -1.08 -0.12 -1.64 -0.2 c-0.12 0 -0.2 -0.12 -0.24 -0.24 c-0.32 -0.88 -0.32 -0.88 -0.32 -1.84 c-0.04 -1.08 -0.04 -2.2 -0.04 -3.32 l0 -8.04 c0.04 -2.4 0.08 -4.84 0.08 -7.24 c0 -0.8 0.08 -1.6 0.08 -2.4 c0 -0.16 0.04 -0.36 -0.12 -0.52 c-0.08 -0.32 -0.2 -0.6 -0.28 -0.88 c-0.08 -0.64 -0.12 -1.28 0.08 -1.88 c0.08 -0.16 0.16 -0.24 0.32 -0.24 l0.52 0 l10.44 0 c0.2 0 0.44 -0.04 0.64 0.04 z M37.132000000000005 11.68 c0.12 -0.04 0.24 -0.04 0.36 -0.12 c0.52 -0.24 1.04 -0.2 1.6 -0.2 c0.12 0.04 0.24 0.04 0.32 0.08 c0.24 0.04 0.4 0.16 0.44 0.44 c0.08 0.28 0.12 0.56 0.12 0.84 c0.04 0.6 0.16 1.16 0.12 1.76 c0.08 1.08 0 2.12 0.04 3.2 c0 0.2 0.04 0.44 0.04 0.64 s0.04 0.4 0.04 0.6 l0 3.84 c0 0.28 0.04 0.52 0.04 0.8 l0 0.68 l0 5.36 l0 0.44 c0 0.16 0.04 0.32 0.12 0.48 c0.16 0.24 0.2 0.56 0.24 0.88 c0 0.12 0.04 0.24 0.12 0.36 c0.2 0.44 0.36 0.88 0.52 1.36 c0.12 0.32 0.28 0.6 0.52 0.84 c0.24 0.28 0.44 0.52 0.68 0.8 c0.08 0.08 0.16 0.16 0.24 0.2 c0.2 0.16 0.44 0.28 0.68 0.28 c0.36 0.04 0.76 0.04 1.08 -0.12 c0.08 -0.04 0.16 -0.12 0.2 -0.2 c0.12 -0.16 0.2 -0.32 0.24 -0.52 c0.04 -0.44 0.16 -0.88 0.28 -1.28 c0.12 -0.28 0.16 -0.52 0.16 -0.8 c0.04 -0.28 0.12 -0.6 0.24 -0.88 c0.24 -0.76 0.36 -1.56 0.36 -2.36 l0 -0.84 l0 -0.6 c-0.16 -0.28 -0.04 -0.52 0 -0.76 c0.04 -0.56 0.04 -1.08 0 -1.6 c-0.08 -0.96 -0.04 -1.96 -0.04 -2.92 c0 -1.76 0.04 -3.48 0.04 -5.24 c0 -1.12 0.04 -2.24 0.08 -3.36 c0 -0.32 0.04 -0.64 0.12 -0.92 c0.04 -0.24 0.04 -0.48 0.08 -0.72 c0.04 -0.08 0.08 -0.16 0.2 -0.2 c0.08 0 0.16 0 0.24 -0.04 c0.64 -0.32 1.28 -0.24 1.96 -0.2 c0.16 0 0.28 0.08 0.44 0.12 c0.08 0 0.16 0.08 0.16 0.16 c0.12 0.68 0.24 1.32 0.24 1.96 c0 1.36 0.04 2.72 0.04 4.04 c0.04 5 0 9.96 0 14.92 c0 0.84 0.04 0.84 -0.28 1.56 c-0.36 0.84 -0.72 1.64 -1.08 2.48 c-0.04 0.04 -0.04 0.08 -0.08 0.12 c0 0.04 -0.04 0.08 -0.08 0.12 c-0.28 0.16 -0.36 0.52 -0.64 0.72 c-0.36 0.2 -0.68 0.48 -1.04 0.72 c-0.24 0.2 -0.52 0.32 -0.84 0.36 c-0.28 0 -0.6 0.12 -0.92 0.12 c-0.16 0 -0.32 0.08 -0.48 0.12 c-0.24 0.08 -0.44 0.08 -0.68 -0.04 c-0.16 -0.08 -0.32 -0.08 -0.48 0 s-0.32 0.04 -0.48 0 c-0.28 -0.04 -0.6 -0.12 -0.88 -0.24 c-0.36 -0.12 -0.72 -0.32 -1 -0.64 c-0.04 -0.04 -0.12 -0.12 -0.2 -0.16 c-0.28 -0.16 -0.48 -0.36 -0.68 -0.6 c-0.28 -0.32 -0.56 -0.6 -0.88 -0.88 c-0.28 -0.28 -0.48 -0.6 -0.72 -0.88 l-0.04 -0.04 c-0.08 -0.48 -0.36 -0.88 -0.36 -1.32 c0 -0.28 -0.04 -0.56 -0.12 -0.8 c-0.08 -0.4 -0.2 -0.76 -0.28 -1.16 c-0.28 -0.92 -0.32 -1.88 -0.56 -2.8 c0 -0.36 -0.04 -0.72 -0.04 -1.12 c0 -2.6 0 -5.24 0.04 -7.88 c0 -0.4 0 -0.84 0.04 -1.24 c0 -0.92 0.04 -1.8 0.04 -2.72 c0 -1.2 0.04 -2.36 0.16 -3.56 c0.04 -0.36 0.08 -0.76 0.12 -1.12 c0 -0.12 0.08 -0.2 0.08 -0.32 z M52.49800000000001 11.48 c0.6 -0.28 1.2 -0.4 1.84 -0.4 c0.16 0 0.36 0 0.56 0.04 c0.16 0.04 0.24 0.12 0.28 0.28 c0.08 0.16 0.12 0.28 0.16 0.44 c0.08 0.36 0.12 0.72 0.2 1.08 c0.04 0.12 0.08 0.24 0.12 0.4 c0.08 0.12 0.16 0.24 0.2 0.36 c0.16 0.68 0.36 1.32 0.52 2 c0.12 0.4 0.24 0.8 0.44 1.2 c0.28 0.56 0.56 1.12 0.84 1.72 c0.24 0.52 0.52 1.04 0.76 1.6 c0.32 0.64 0.6 1.32 0.92 2 c0.12 0.28 0.32 0.56 0.48 0.88 c0.52 0.92 0.92 1.88 1.2 2.92 c0.04 0.2 0.12 0.4 0.2 0.6 c0.44 1.04 0.88 2.04 1.32 3.04 c0.16 0.32 0.32 0.6 0.52 0.88 c0.24 0.32 0.48 0.68 0.68 1.04 c0.12 0.24 0.28 0.4 0.4 0.6 c0.04 0.04 0.08 0.04 0.12 0.08 c0.04 0 0.12 -0.08 0.12 -0.16 l0 -0.72 l0 -19.72 l0 -0.72 c0 -0.08 0.04 -0.16 0.08 -0.24 c0.76 -0.2 1.52 -0.2 2.28 -0.2 c0.08 0 0.16 0.04 0.28 0.04 c0.36 0.12 0.48 0.12 0.52 0.6 c0.08 0.88 0.04 1.76 0.04 2.64 l0 2.84 c0.04 0.28 0 0.56 0 0.84 c0 0.56 0.04 1.12 0 1.72 c0 0.56 0.04 1.16 0 1.76 l0 1.68 l0 1.8 l0 2.2 c0 0.8 -0.04 1.64 -0.04 2.44 c0 0.36 0 0.68 -0.04 1 c0 1.44 0 2.84 -0.04 4.28 c0 0.52 -0.04 1.04 -0.08 1.56 l0 0.28 c-0.04 0.52 0.12 0.96 0.6 1.24 c0.24 0.12 0.32 0.28 0.32 0.52 c0.04 0.12 0.04 0.28 0.04 0.4 c0 0.16 -0.08 0.24 -0.16 0.32 c-0.28 0.2 -0.48 0.52 -0.68 0.8 c-0.08 0.16 -0.16 0.28 -0.28 0.4 c-0.24 0.2 -0.48 0.32 -0.76 0.28 c-0.12 -0.04 -0.2 0 -0.28 0 c-0.28 0 -0.48 -0.12 -0.64 -0.32 c-0.2 -0.24 -0.44 -0.48 -0.64 -0.72 c-0.16 -0.16 -0.28 -0.36 -0.36 -0.52 c-0.28 -0.6 -0.64 -1.2 -1 -1.72 c-0.2 -0.28 -0.4 -0.56 -0.6 -0.8 c-0.28 -0.24 -0.52 -0.56 -0.72 -0.88 c-0.16 -0.2 -0.32 -0.4 -0.44 -0.64 c-0.12 -0.16 -0.24 -0.32 -0.36 -0.52 c-0.2 -0.44 -0.44 -0.84 -0.72 -1.2 s-0.52 -0.76 -0.72 -1.16 c-0.32 -0.56 -0.6 -1.12 -0.84 -1.72 c-0.12 -0.44 -0.32 -0.84 -0.52 -1.24 c-0.36 -0.76 -0.68 -1.56 -0.92 -2.36 c-0.12 -0.44 -0.32 -0.84 -0.52 -1.24 c-0.48 -0.88 -0.92 -1.72 -1.28 -2.64 c-0.04 -0.12 -0.12 -0.24 -0.2 -0.36 l-0.04 0 l-0.08 0 l0 0.56 l0 7.48 c-0.04 2 -0.04 4.04 -0.08 6.08 c0 0.76 -0.04 1.52 -0.16 2.28 c-0.04 0.16 -0.04 0.32 -0.04 0.48 c-0.04 0.2 -0.16 0.36 -0.36 0.44 c-0.52 0.2 -1.04 0.24 -1.6 0.16 c-0.16 0 -0.36 -0.08 -0.52 -0.12 c-0.12 -0.04 -0.16 -0.12 -0.16 -0.24 c-0.04 -0.12 -0.04 -0.24 -0.08 -0.36 c0 -0.16 0 -0.32 -0.04 -0.48 c-0.08 -0.64 -0.12 -1.28 -0.16 -1.92 l0 -0.96 c-0.04 -0.4 -0.04 -0.8 -0.04 -1.24 l0 -20.28 c0 -0.44 0.04 -0.88 -0.08 -1.32 c-0.04 -0.08 0 -0.2 0.04 -0.28 c0.12 -0.28 0.16 -0.56 0.2 -0.88 z M75.06400000000002 14.559999999999999 c-1.08 -0.2 -2.2 -0.2 -3.32 -0.16 c-0.44 0.04 -0.56 -0.04 -0.76 -0.44 c-0.2 -0.44 -0.24 -0.92 -0.24 -1.44 c0 -0.56 0.08 -0.68 0.72 -0.92 c0.36 -0.16 0.72 -0.16 1.12 -0.2 c0.84 -0.04 1.68 0 2.52 0.04 l1.24 0 c0.56 -0.04 1.16 -0.04 1.72 -0.04 c0.08 0 0.2 0 0.28 0.04 c0.28 0.12 0.52 0.12 0.8 0.12 l2.16 0 c0.16 0 0.36 -0.04 0.52 0.04 c0 0.04 0.04 0.08 0.08 0.12 c0.04 0.44 0.12 0.84 0.16 1.28 c0 0.2 -0.04 0.4 0 0.56 c0 0.28 -0.08 0.56 -0.16 0.8 c-0.04 0.16 -0.16 0.28 -0.32 0.28 c-0.4 0.04 -0.84 0.04 -1.24 0.04 l-1.64 0 c-0.24 0 -0.36 0.12 -0.36 0.36 l0 0.6 c0 0.4 0.04 0.84 0.04 1.24 l0 6.64 c0 1.56 0.04 3.16 0 4.72 l0 6.76 c0 0.24 0 0.44 0.04 0.68 c0 0.04 0.04 0.08 0.08 0.08 c0.12 0.04 0.24 0.08 0.36 0.08 c0.56 0 1.12 0.16 1.68 0.04 l1.56 0.12 c0.08 0.04 0.16 0.04 0.24 0.04 l0.36 0.24 c0.08 0.08 0.12 0.2 0.16 0.32 c0.16 0.44 0.12 0.88 0.04 1.32 c0 0.04 -0.04 0.08 -0.04 0.12 c-0.2 0.76 -0.28 0.76 -0.96 0.68 c-0.04 0 -0.12 -0.04 -0.16 -0.04 c-0.64 0 -1.28 -0.04 -1.92 -0.08 c-0.44 0 -0.84 0.04 -1.24 0.08 c-0.24 0.04 -0.48 0.04 -0.64 0.24 c-0.4 0.12 -0.8 0.24 -1.2 0.28 c-0.36 0.04 -0.68 -0.12 -1 -0.28 c-0.08 -0.04 -0.16 -0.12 -0.24 -0.16 c-0.12 -0.04 -0.24 -0.08 -0.36 -0.08 c-0.2 0 -0.4 0.04 -0.6 0 c-0.2 0 -0.44 0 -0.64 0.08 c-0.16 0.08 -0.32 0.12 -0.52 0.12 c-0.24 0 -0.52 0.04 -0.8 0.12 c-0.48 0.12 -0.96 0.04 -1.44 -0.12 c-0.16 -0.12 -0.32 -0.28 -0.44 -0.4 c-0.04 -0.04 -0.04 -0.08 -0.04 -0.12 c0 -0.2 0.04 -0.36 0.04 -0.52 c0.04 -0.24 0.08 -0.48 0.04 -0.76 c-0.04 -0.2 0 -0.44 0.08 -0.64 c0.04 -0.24 0.24 -0.44 0.52 -0.48 c0.48 -0.04 1 -0.08 1.48 -0.12 l0.72 -0.12 s0.48 -0.08 0.72 0 c0.2 0.04 0.4 0 0.6 -0.04 c0.32 -0.04 0.36 -0.08 0.36 -0.44 l0 -1.76 c-0.04 -0.92 -0.04 -1.8 -0.04 -2.68 l0 -6.68 c0.04 -1.96 0.04 -3.92 0.08 -5.88 c0 -0.96 0 -1.92 0.08 -2.88 l0 -0.24 c0.04 -0.24 -0.08 -0.4 -0.28 -0.56 z M90.75000000000001 39.72 l-0.36 -0.12 s-0.24 -0.04 -0.32 0 s-0.2 0.04 -0.28 0.04 c-0.6 -0.08 -1.32 -0.24 -1.8 -0.8 c-0.04 0 -0.08 -0.04 -0.12 -0.08 c-0.64 -0.4 -1.04 -1 -1.6 -1.52 c-0.2 -0.16 -0.32 -0.36 -0.44 -0.56 c-0.08 -0.16 -0.16 -0.36 -0.2 -0.52 c-0.12 -0.28 -0.2 -0.56 -0.2 -0.84 c0.04 -0.2 -0.04 -0.4 -0.08 -0.6 c-0.08 -0.28 -0.12 -0.56 -0.2 -0.84 c-0.2 -0.68 -0.28 -1.36 -0.44 -2.04 c-0.08 -0.36 -0.08 -0.72 -0.08 -1.08 c0 -1.24 -0.04 -2.48 -0.04 -3.72 s0.04 -2.48 0.04 -3.76 l0 -1.8 c0.04 -0.28 0 -0.56 -0.16 -0.8 c-0.04 -0.08 -0.04 -0.2 -0.04 -0.32 c0.04 -0.08 0.04 -0.12 0.04 -0.2 c0.08 -0.44 0.08 -0.88 -0.04 -1.32 c-0.04 -0.2 -0.04 -0.4 0 -0.6 c0.08 -0.36 0.12 -0.68 0 -1 l0 -0.28 c0.04 -0.12 0.04 -0.2 0.08 -0.32 c0.12 -0.28 0.16 -0.6 0.16 -0.92 c0 -0.24 0.04 -0.48 0.16 -0.72 c0.2 -0.48 0.52 -0.88 0.72 -1.36 c0.04 -0.08 0.08 -0.16 0.16 -0.2 c0.4 -0.44 0.8 -0.88 1.28 -1.2 c0.32 -0.2 0.6 -0.44 0.92 -0.68 c0.16 -0.16 0.36 -0.24 0.6 -0.28 c0.32 -0.08 0.6 -0.12 0.92 -0.2 c0.16 -0.08 0.32 -0.08 0.44 -0.08 c0.16 -0.04 0.32 -0.04 0.48 -0.08 c0.12 -0.04 0.28 -0.04 0.4 0.04 c0.04 0.04 0.12 0.04 0.16 0.08 c0.2 0.12 0.44 0.16 0.68 0.16 l0.4 0 s0.28 0.04 0.4 0.16 c0.04 0.04 0.08 0.08 0.12 0.08 c0.12 0.16 0.28 0.24 0.44 0.28 c0.44 0.16 0.72 0.44 1 0.8 c0.16 0.24 0.36 0.52 0.6 0.72 c0.08 0.08 0.16 0.2 0.2 0.32 c0.12 0.28 0.24 0.52 0.32 0.84 c0.04 0.2 0.16 0.4 0.24 0.6 c0.12 0.24 0.2 0.52 0.24 0.76 c0 0.36 0.08 0.72 0.16 1.08 c0.08 0.32 0.12 0.68 0.12 1 c-0.04 0.32 0 0.64 0.12 0.92 c0.04 0.12 0.04 0.24 0.04 0.32 c0.04 0.2 0.04 0.4 -0.08 0.52 c-0.08 0.12 -0.08 0.28 -0.08 0.4 l0 0.72 l0 13.24 c0.04 0.6 -0.12 1.2 -0.36 1.76 l-0.84 1.92 c-0.08 0.12 -0.16 0.2 -0.24 0.32 c-0.36 0.52 -0.92 0.84 -1.4 1.2 c-0.2 0.16 -0.4 0.24 -0.64 0.28 c-0.12 0 -0.28 0.04 -0.4 0.04 c-0.4 0 -0.8 0.12 -1.2 0.24 z M87.75000000000001 26.52 l0 4.48 l0 0.68 c0 0.12 0 0.24 0.04 0.32 c0.16 0.28 0.2 0.56 0.24 0.84 c0.04 0.12 0.08 0.28 0.12 0.4 c0.16 0.4 0.32 0.76 0.48 1.16 c0.08 0.16 0.16 0.36 0.24 0.48 c0.28 0.32 0.56 0.64 0.8 0.92 c0.32 0.36 0.76 0.48 1.24 0.44 c0.36 -0.04 0.64 -0.16 0.8 -0.52 c0.04 -0.08 0.04 -0.16 0.08 -0.24 c0 -0.36 0.12 -0.72 0.24 -1.08 c0.08 -0.28 0.16 -0.56 0.16 -0.84 c0 -0.2 0.08 -0.4 0.12 -0.6 c0.24 -0.56 0.32 -1.16 0.36 -1.76 c0 -0.44 0 -0.84 0.04 -1.28 c0 -0.16 0 -0.32 -0.08 -0.48 c-0.04 -0.08 -0.04 -0.2 0 -0.32 c0.12 -0.52 0.08 -1.04 0.04 -1.56 c-0.08 -0.76 -0.04 -1.56 -0.04 -2.32 c0 -1.48 0.04 -2.92 0.04 -4.4 c0.04 -0.24 0.04 -0.44 -0.04 -0.68 c-0.04 -0.08 -0.04 -0.2 -0.04 -0.32 c-0.04 -0.56 -0.12 -1.12 -0.24 -1.68 s-0.24 -1.12 -0.24 -1.72 c0 -0.28 -0.12 -0.56 -0.24 -0.84 c-0.08 -0.16 -0.2 -0.28 -0.28 -0.44 c-0.08 -0.2 -0.24 -0.32 -0.44 -0.4 c-0.08 -0.08 -0.2 -0.12 -0.28 -0.16 c-0.6 -0.2 -1.12 -0.16 -1.6 0.24 c-0.28 0.24 -0.52 0.48 -0.76 0.76 c-0.16 0.12 -0.24 0.32 -0.28 0.52 c-0.08 0.4 -0.16 0.84 -0.24 1.24 l0 0.2 c0 0.2 -0.04 0.4 0 0.6 c0 0.24 -0.16 0.44 -0.2 0.68 l0 0.04 c-0.04 0.52 -0.12 1.04 -0.16 1.56 c-0.04 0.36 -0.04 0.76 0.04 1.12 c0.04 0.12 0.04 0.24 0.04 0.36 c0 1.56 -0.04 3.16 0.04 4.6 z M98.95600000000002 11.48 c0.6 -0.28 1.2 -0.4 1.84 -0.4 c0.16 0 0.36 0 0.56 0.04 c0.16 0.04 0.24 0.12 0.28 0.28 c0.08 0.16 0.12 0.28 0.16 0.44 c0.08 0.36 0.12 0.72 0.2 1.08 c0.04 0.12 0.08 0.24 0.12 0.4 c0.08 0.12 0.16 0.24 0.2 0.36 c0.16 0.68 0.36 1.32 0.52 2 c0.12 0.4 0.24 0.8 0.44 1.2 c0.28 0.56 0.56 1.12 0.84 1.72 c0.24 0.52 0.52 1.04 0.76 1.6 c0.32 0.64 0.6 1.32 0.92 2 c0.12 0.28 0.32 0.56 0.48 0.88 c0.52 0.92 0.92 1.88 1.2 2.92 c0.04 0.2 0.12 0.4 0.2 0.6 c0.44 1.04 0.88 2.04 1.32 3.04 c0.16 0.32 0.32 0.6 0.52 0.88 c0.24 0.32 0.48 0.68 0.68 1.04 c0.12 0.24 0.28 0.4 0.4 0.6 c0.04 0.04 0.08 0.04 0.12 0.08 c0.04 0 0.12 -0.08 0.12 -0.16 l0 -0.72 l0 -19.72 l0 -0.72 c0 -0.08 0.04 -0.16 0.08 -0.24 c0.76 -0.2 1.52 -0.2 2.28 -0.2 c0.08 0 0.16 0.04 0.28 0.04 c0.36 0.12 0.48 0.12 0.52 0.6 c0.08 0.88 0.04 1.76 0.04 2.64 l0 2.84 c0.04 0.28 0 0.56 0 0.84 c0 0.56 0.04 1.12 0 1.72 c0 0.56 0.04 1.16 0 1.76 l0 1.68 l0 1.8 l0 2.2 c0 0.8 -0.04 1.64 -0.04 2.44 c0 0.36 0 0.68 -0.04 1 c0 1.44 0 2.84 -0.04 4.28 c0 0.52 -0.04 1.04 -0.08 1.56 l0 0.28 c-0.04 0.52 0.12 0.96 0.6 1.24 c0.24 0.12 0.32 0.28 0.32 0.52 c0.04 0.12 0.04 0.28 0.04 0.4 c0 0.16 -0.08 0.24 -0.16 0.32 c-0.28 0.2 -0.48 0.52 -0.68 0.8 c-0.08 0.16 -0.16 0.28 -0.28 0.4 c-0.24 0.2 -0.48 0.32 -0.76 0.28 c-0.12 -0.04 -0.2 0 -0.28 0 c-0.28 0 -0.48 -0.12 -0.64 -0.32 c-0.2 -0.24 -0.44 -0.48 -0.64 -0.72 c-0.16 -0.16 -0.28 -0.36 -0.36 -0.52 c-0.28 -0.6 -0.64 -1.2 -1 -1.72 c-0.2 -0.28 -0.4 -0.56 -0.6 -0.8 c-0.28 -0.24 -0.52 -0.56 -0.72 -0.88 c-0.16 -0.2 -0.32 -0.4 -0.44 -0.64 c-0.12 -0.16 -0.24 -0.32 -0.36 -0.52 c-0.2 -0.44 -0.44 -0.84 -0.72 -1.2 s-0.52 -0.76 -0.72 -1.16 c-0.32 -0.56 -0.6 -1.12 -0.84 -1.72 c-0.12 -0.44 -0.32 -0.84 -0.52 -1.24 c-0.36 -0.76 -0.68 -1.56 -0.92 -2.36 c-0.12 -0.44 -0.32 -0.84 -0.52 -1.24 c-0.48 -0.88 -0.92 -1.72 -1.28 -2.64 c-0.04 -0.12 -0.12 -0.24 -0.2 -0.36 l-0.04 0 l-0.08 0 l0 0.56 l0 7.48 c-0.04 2 -0.04 4.04 -0.08 6.08 c0 0.76 -0.04 1.52 -0.16 2.28 c-0.04 0.16 -0.04 0.32 -0.04 0.48 c-0.04 0.2 -0.16 0.36 -0.36 0.44 c-0.52 0.2 -1.04 0.24 -1.6 0.16 c-0.16 0 -0.36 -0.08 -0.52 -0.12 c-0.12 -0.04 -0.16 -0.12 -0.16 -0.24 c-0.04 -0.12 -0.04 -0.24 -0.08 -0.36 c0 -0.16 0 -0.32 -0.04 -0.48 c-0.08 -0.64 -0.12 -1.28 -0.16 -1.92 l0 -0.96 c-0.04 -0.4 -0.04 -0.8 -0.04 -1.24 l0 -20.28 c0 -0.44 0.04 -0.88 -0.08 -1.32 c-0.04 -0.08 0 -0.2 0.04 -0.28 c0.12 -0.28 0.16 -0.56 0.2 -0.88 z M123.92200000000003 39.72 l-0.36 -0.12 s-0.24 -0.04 -0.32 0 s-0.2 0.04 -0.28 0.04 c-0.6 -0.08 -1.32 -0.24 -1.8 -0.8 c-0.04 0 -0.08 -0.04 -0.12 -0.08 c-0.64 -0.4 -1.04 -1 -1.6 -1.52 c-0.2 -0.16 -0.32 -0.36 -0.44 -0.56 c-0.08 -0.16 -0.16 -0.36 -0.2 -0.52 c-0.12 -0.28 -0.2 -0.56 -0.2 -0.84 c0.04 -0.2 -0.04 -0.4 -0.08 -0.6 c-0.08 -0.28 -0.12 -0.56 -0.2 -0.84 c-0.2 -0.68 -0.28 -1.36 -0.44 -2.04 c-0.08 -0.36 -0.08 -0.72 -0.08 -1.08 c0 -1.24 -0.04 -2.48 -0.04 -3.72 s0.04 -2.48 0.04 -3.76 l0 -1.8 c0.04 -0.28 0 -0.56 -0.16 -0.8 c-0.04 -0.08 -0.04 -0.2 -0.04 -0.32 c0.04 -0.08 0.04 -0.12 0.04 -0.2 c0.08 -0.44 0.08 -0.88 -0.04 -1.32 c-0.04 -0.2 -0.04 -0.4 0 -0.6 c0.08 -0.36 0.12 -0.68 0 -1 l0 -0.28 c0.04 -0.12 0.04 -0.2 0.08 -0.32 c0.12 -0.28 0.16 -0.6 0.16 -0.92 c0 -0.24 0.04 -0.48 0.16 -0.72 c0.2 -0.48 0.52 -0.88 0.72 -1.36 c0.04 -0.08 0.08 -0.16 0.16 -0.2 c0.4 -0.44 0.8 -0.88 1.28 -1.2 c0.32 -0.2 0.6 -0.44 0.92 -0.68 c0.16 -0.16 0.36 -0.24 0.6 -0.28 c0.32 -0.08 0.6 -0.12 0.92 -0.2 c0.16 -0.08 0.32 -0.08 0.44 -0.08 c0.16 -0.04 0.32 -0.04 0.48 -0.08 c0.12 -0.04 0.28 -0.04 0.4 0.04 c0.04 0.04 0.12 0.04 0.16 0.08 c0.2 0.12 0.44 0.16 0.68 0.16 l0.4 0 s0.28 0.04 0.4 0.16 c0.04 0.04 0.08 0.08 0.12 0.08 c0.12 0.16 0.28 0.24 0.44 0.28 c0.44 0.16 0.72 0.44 1 0.8 c0.16 0.24 0.36 0.52 0.6 0.72 c0.08 0.08 0.16 0.2 0.2 0.32 c0.12 0.28 0.24 0.52 0.32 0.84 c0.04 0.2 0.16 0.4 0.24 0.6 c0.12 0.24 0.2 0.52 0.24 0.76 c0 0.36 0.08 0.72 0.16 1.08 c0.08 0.32 0.12 0.68 0.12 1 c-0.04 0.32 0 0.64 0.12 0.92 c0.04 0.12 0.04 0.24 0.04 0.32 c0.04 0.2 0.04 0.4 -0.08 0.52 c-0.08 0.12 -0.08 0.28 -0.08 0.4 l0 0.72 l0 13.24 c0.04 0.6 -0.12 1.2 -0.36 1.76 l-0.84 1.92 c-0.08 0.12 -0.16 0.2 -0.24 0.32 c-0.36 0.52 -0.92 0.84 -1.4 1.2 c-0.2 0.16 -0.4 0.24 -0.64 0.28 c-0.12 0 -0.28 0.04 -0.4 0.04 c-0.4 0 -0.8 0.12 -1.2 0.24 z M120.92200000000003 26.52 l0 4.48 l0 0.68 c0 0.12 0 0.24 0.04 0.32 c0.16 0.28 0.2 0.56 0.24 0.84 c0.04 0.12 0.08 0.28 0.12 0.4 c0.16 0.4 0.32 0.76 0.48 1.16 c0.08 0.16 0.16 0.36 0.24 0.48 c0.28 0.32 0.56 0.64 0.8 0.92 c0.32 0.36 0.76 0.48 1.24 0.44 c0.36 -0.04 0.64 -0.16 0.8 -0.52 c0.04 -0.08 0.04 -0.16 0.08 -0.24 c0 -0.36 0.12 -0.72 0.24 -1.08 c0.08 -0.28 0.16 -0.56 0.16 -0.84 c0 -0.2 0.08 -0.4 0.12 -0.6 c0.24 -0.56 0.32 -1.16 0.36 -1.76 c0 -0.44 0 -0.84 0.04 -1.28 c0 -0.16 0 -0.32 -0.08 -0.48 c-0.04 -0.08 -0.04 -0.2 0 -0.32 c0.12 -0.52 0.08 -1.04 0.04 -1.56 c-0.08 -0.76 -0.04 -1.56 -0.04 -2.32 c0 -1.48 0.04 -2.92 0.04 -4.4 c0.04 -0.24 0.04 -0.44 -0.04 -0.68 c-0.04 -0.08 -0.04 -0.2 -0.04 -0.32 c-0.04 -0.56 -0.12 -1.12 -0.24 -1.68 s-0.24 -1.12 -0.24 -1.72 c0 -0.28 -0.12 -0.56 -0.24 -0.84 c-0.08 -0.16 -0.2 -0.28 -0.28 -0.44 c-0.08 -0.2 -0.24 -0.32 -0.44 -0.4 c-0.08 -0.08 -0.2 -0.12 -0.28 -0.16 c-0.6 -0.2 -1.12 -0.16 -1.6 0.24 c-0.28 0.24 -0.52 0.48 -0.76 0.76 c-0.16 0.12 -0.24 0.32 -0.28 0.52 c-0.08 0.4 -0.16 0.84 -0.24 1.24 l0 0.2 c0 0.2 -0.04 0.4 0 0.6 c0 0.24 -0.16 0.44 -0.2 0.68 l0 0.04 c-0.04 0.52 -0.12 1.04 -0.16 1.56 c-0.04 0.36 -0.04 0.76 0.04 1.12 c0.04 0.12 0.04 0.24 0.04 0.36 c0 1.56 -0.04 3.16 0.04 4.6 z M132.24800000000002 11.68 c0.12 -0.04 0.24 -0.04 0.36 -0.12 c0.52 -0.24 1.04 -0.2 1.6 -0.2 c0.12 0.04 0.24 0.04 0.32 0.08 c0.24 0.04 0.4 0.16 0.44 0.44 c0.08 0.28 0.12 0.56 0.12 0.84 c0.04 0.6 0.16 1.16 0.12 1.76 c0.08 1.08 0 2.12 0.04 3.2 c0 0.2 0.04 0.44 0.04 0.64 s0.04 0.4 0.04 0.6 l0 3.84 c0 0.28 0.04 0.52 0.04 0.8 l0 0.68 l0 5.36 l0 0.44 c0 0.16 0.04 0.32 0.12 0.48 c0.16 0.24 0.2 0.56 0.24 0.88 c0 0.12 0.04 0.24 0.12 0.36 c0.2 0.44 0.36 0.88 0.52 1.36 c0.12 0.32 0.28 0.6 0.52 0.84 c0.24 0.28 0.44 0.52 0.68 0.8 c0.08 0.08 0.16 0.16 0.24 0.2 c0.2 0.16 0.44 0.28 0.68 0.28 c0.36 0.04 0.76 0.04 1.08 -0.12 c0.08 -0.04 0.16 -0.12 0.2 -0.2 c0.12 -0.16 0.2 -0.32 0.24 -0.52 c0.04 -0.44 0.16 -0.88 0.28 -1.28 c0.12 -0.28 0.16 -0.52 0.16 -0.8 c0.04 -0.28 0.12 -0.6 0.24 -0.88 c0.24 -0.76 0.36 -1.56 0.36 -2.36 l0 -0.84 l0 -0.6 c-0.16 -0.28 -0.04 -0.52 0 -0.76 c0.04 -0.56 0.04 -1.08 0 -1.6 c-0.08 -0.96 -0.04 -1.96 -0.04 -2.92 c0 -1.76 0.04 -3.48 0.04 -5.24 c0 -1.12 0.04 -2.24 0.08 -3.36 c0 -0.32 0.04 -0.64 0.12 -0.92 c0.04 -0.24 0.04 -0.48 0.08 -0.72 c0.04 -0.08 0.08 -0.16 0.2 -0.2 c0.08 0 0.16 0 0.24 -0.04 c0.64 -0.32 1.28 -0.24 1.96 -0.2 c0.16 0 0.28 0.08 0.44 0.12 c0.08 0 0.16 0.08 0.16 0.16 c0.12 0.68 0.24 1.32 0.24 1.96 c0 1.36 0.04 2.72 0.04 4.04 c0.04 5 0 9.96 0 14.92 c0 0.84 0.04 0.84 -0.28 1.56 c-0.36 0.84 -0.72 1.64 -1.08 2.48 c-0.04 0.04 -0.04 0.08 -0.08 0.12 c0 0.04 -0.04 0.08 -0.08 0.12 c-0.28 0.16 -0.36 0.52 -0.64 0.72 c-0.36 0.2 -0.68 0.48 -1.04 0.72 c-0.24 0.2 -0.52 0.32 -0.84 0.36 c-0.28 0 -0.6 0.12 -0.92 0.12 c-0.16 0 -0.32 0.08 -0.48 0.12 c-0.24 0.08 -0.44 0.08 -0.68 -0.04 c-0.16 -0.08 -0.32 -0.08 -0.48 0 s-0.32 0.04 -0.48 0 c-0.28 -0.04 -0.6 -0.12 -0.88 -0.24 c-0.36 -0.12 -0.72 -0.32 -1 -0.64 c-0.04 -0.04 -0.12 -0.12 -0.2 -0.16 c-0.28 -0.16 -0.48 -0.36 -0.68 -0.6 c-0.28 -0.32 -0.56 -0.6 -0.88 -0.88 c-0.28 -0.28 -0.48 -0.6 -0.72 -0.88 l-0.04 -0.04 c-0.08 -0.48 -0.36 -0.88 -0.36 -1.32 c0 -0.28 -0.04 -0.56 -0.12 -0.8 c-0.08 -0.4 -0.2 -0.76 -0.28 -1.16 c-0.28 -0.92 -0.32 -1.88 -0.56 -2.8 c0 -0.36 -0.04 -0.72 -0.04 -1.12 c0 -2.6 0 -5.24 0.04 -7.88 c0 -0.4 0 -0.84 0.04 -1.24 c0 -0.92 0.04 -1.8 0.04 -2.72 c0 -1.2 0.04 -2.36 0.16 -3.56 c0.04 -0.36 0.08 -0.76 0.12 -1.12 c0 -0.12 0.08 -0.2 0.08 -0.32 z" fill="#FFFFFF"></path></g></svg>